<svg width="306" height="39" viewBox="0 0 306 39" fill="none" xmlns="http://www.w3.org/2000/svg">
<path d="M19.7358 32.0936C21.871 32.0936 23.7087 31.7436 25.2488 31.0435C26.7889 30.3085 28.3991 29.1533 30.0792 27.5782L34.0696 31.6736C30.1843 35.979 25.4588 38.1317 19.8933 38.1317C14.3628 38.1317 9.75987 36.3465 6.08453 32.7762C2.44419 29.2059 0.624023 24.6904 0.624023 19.2299C0.624023 13.7694 2.47919 9.219 6.18954 5.57867C9.93488 1.93833 14.6428 0.118164 20.3133 0.118164C26.0189 0.118164 30.7793 2.21836 34.5947 6.41875L30.6568 10.7241C28.9066 9.04399 27.244 7.87138 25.6688 7.20632C24.1287 6.54126 22.3085 6.20873 20.2083 6.20873C16.498 6.20873 13.3827 7.41634 10.8625 9.83156C8.34224 12.2118 7.08212 15.2746 7.08212 19.0199C7.08212 22.7303 8.32474 25.8455 10.81 28.3658C13.3302 30.851 16.3055 32.0936 19.7358 32.0936Z" fill="white"/>
<path d="M36.3971 1.01074H42.5926V37.7116H36.3971V1.01074Z" fill="white"/>
<path d="M76.8008 12.9293C76.8008 18.9849 74.158 22.8003 68.8725 24.3754L78.4809 37.7116H70.6052L61.8369 25.373H53.6986V37.7116H47.5031V1.01074H61.1543C66.7548 1.01074 70.7627 1.95583 73.1779 3.84601C75.5932 5.73618 76.8008 8.76396 76.8008 12.9293ZM61.4169 19.755C64.9172 19.755 67.2974 19.2124 68.5575 18.1273C69.8176 17.0422 70.4477 15.3096 70.4477 12.9293C70.4477 10.5141 69.8001 8.86897 68.505 7.99389C67.2099 7.08381 64.8997 6.62877 61.5744 6.62877H53.6986V19.755H61.4169Z" fill="white"/>
<path d="M97.201 32.0936C99.3362 32.0936 101.174 31.7436 102.714 31.0435C104.254 30.3085 105.864 29.1533 107.544 27.5782L111.535 31.6736C107.649 35.979 102.924 38.1317 97.3585 38.1317C91.828 38.1317 87.225 36.3465 83.5497 32.7762C79.9094 29.2059 78.0892 24.6904 78.0892 19.2299C78.0892 13.7694 79.9444 9.219 83.6547 5.57867C87.4 1.93833 92.108 0.118164 97.7785 0.118164C103.484 0.118164 108.244 2.21836 112.06 6.41875L108.122 10.7241C106.372 9.04399 104.709 7.87138 103.134 7.20632C101.594 6.54126 99.7737 6.20873 97.6735 6.20873C93.9632 6.20873 90.8479 7.41634 88.3276 9.83156C85.8074 12.2118 84.5473 15.2746 84.5473 19.0199C84.5473 22.7303 85.7899 25.8455 88.2751 28.3658C90.7954 30.851 93.7706 32.0936 97.201 32.0936Z" fill="white"/>
<path d="M122.105 29.3109C123.786 31.271 126.061 32.2511 128.931 32.2511C131.801 32.2511 134.077 31.271 135.757 29.3109C137.437 27.3507 138.277 24.6904 138.277 21.3301V1.01074H144.473V21.5926C144.473 26.8781 143.02 30.956 140.115 33.8263C137.209 36.6615 133.482 38.0792 128.931 38.0792C124.381 38.0792 120.653 36.6615 117.748 33.8263C114.842 30.956 113.39 26.8781 113.39 21.5926V1.01074H119.585V21.3301C119.585 24.6904 120.425 27.3507 122.105 29.3109Z" fill="white"/>
<path d="M148.913 37.7116V1.01074H155.109V31.8311H171.858V37.7116H148.913Z" fill="white"/>
<path d="M178.6 29.3634L174.925 37.7116H168.309L184.48 1.01074H191.096L207.268 37.7116H200.652L196.977 29.3634H178.6ZM194.456 23.6403L187.788 8.51894L181.12 23.6403H194.456Z" fill="white"/>
<path d="M236.418 12.9293C236.418 18.9849 233.775 22.8003 228.489 24.3754L238.098 37.7116H230.222L221.454 25.373H213.315V37.7116H207.12V1.01074H220.771C226.372 1.01074 230.38 1.95583 232.795 3.84601C235.21 5.73618 236.418 8.76396 236.418 12.9293ZM221.034 19.755C224.534 19.755 226.914 19.2124 228.174 18.1273C229.434 17.0422 230.064 15.3096 230.064 12.9293C230.064 10.5141 229.417 8.86897 228.122 7.99389C226.827 7.08381 224.516 6.62877 221.191 6.62877H213.315V19.755H221.034Z" fill="white"/>
<path d="M240.069 1.01074H246.264V37.7116H240.069V1.01074Z" fill="white"/>
<path d="M265.036 6.68127V37.7116H258.84V6.68127H247.709V1.01074H276.167V6.68127H265.036Z" fill="white"/>
<path d="M292.051 37.7116H285.75V23.2203L272.099 1.01074H278.872L288.9 17.7073L298.929 1.01074H305.702L292.051 23.2203V37.7116Z" fill="white"/>
<path d="M28.5659 19.2812C28.5659 24.1141 24.6481 28.032 19.8151 28.032C14.9822 28.032 11.0643 24.1141 11.0643 19.2812C11.0643 14.4483 14.9822 10.5304 19.8151 10.5304C24.6481 10.5304 28.5659 14.4483 28.5659 19.2812Z" fill="#FF6363"/>
</svg>
