<svg width="36" height="9" viewBox="0 0 36 9" fill="none" xmlns="http://www.w3.org/2000/svg">
<path d="M6.22181 7.404H2.88581L2.33381 9H0.569809L3.58181 0.612H5.53781L8.54981 9H6.77381L6.22181 7.404ZM5.76581 6.06L4.55381 2.556L3.34181 6.06H5.76581Z" fill="white"/>
<path d="M11.3557 0.624V9H9.67565V0.624H11.3557Z" fill="white"/>
<path d="M15.9435 0.624C16.8235 0.624 17.5955 0.796 18.2595 1.14C18.9315 1.484 19.4475 1.976 19.8075 2.616C20.1755 3.248 20.3595 3.984 20.3595 4.824C20.3595 5.664 20.1755 6.4 19.8075 7.032C19.4475 7.656 18.9315 8.14 18.2595 8.484C17.5955 8.828 16.8235 9 15.9435 9H13.0155V0.624H15.9435ZM15.8835 7.572C16.7635 7.572 17.4435 7.332 17.9235 6.852C18.4035 6.372 18.6435 5.696 18.6435 4.824C18.6435 3.952 18.4035 3.272 17.9235 2.784C17.4435 2.288 16.7635 2.04 15.8835 2.04H14.6955V7.572H15.8835Z" fill="white"/>
<path d="M23.2971 1.98V4.08H26.1171V5.412H23.2971V7.632H26.4771V9H21.6171V0.612H26.4771V1.98H23.2971Z" fill="white"/>
<path d="M35.1678 9H33.4878L29.6838 3.252V9H28.0038V0.612H29.6838L33.4878 6.372V0.612H35.1678V9Z" fill="white"/>
</svg>
