<svg width="40" height="22" viewBox="0 0 40 22" fill="none" xmlns="http://www.w3.org/2000/svg">
<path fill-rule="evenodd" clip-rule="evenodd" d="M40 0H0V22H40V0ZM12.909 5.57026C12.645 6.09026 12.513 6.68626 12.513 7.35826C12.513 8.03826 12.645 8.64226 12.909 9.17026C13.181 9.69026 13.549 10.0943 14.013 10.3823C14.477 10.6703 14.989 10.8143 15.549 10.8143C16.045 10.8143 16.481 10.7143 16.857 10.5143C17.233 10.3143 17.525 10.0503 17.733 9.72226V10.7063H19.437V1.82626H17.733V4.98226C17.501 4.67026 17.189 4.42226 16.797 4.23826C16.405 4.04626 15.993 3.95026 15.561 3.95026C14.993 3.95026 14.477 4.09026 14.013 4.37026C13.549 4.65026 13.181 5.05026 12.909 5.57026ZM17.505 6.33826C17.665 6.62626 17.745 6.97426 17.745 7.38226C17.745 7.79026 17.665 8.14226 17.505 8.43826C17.345 8.72626 17.129 8.95026 16.857 9.11026C16.585 9.26226 16.293 9.33826 15.981 9.33826C15.677 9.33826 15.389 9.25826 15.117 9.09826C14.853 8.93826 14.637 8.71026 14.469 8.41426C14.309 8.11026 14.229 7.75826 14.229 7.35826C14.229 6.95826 14.309 6.61426 14.469 6.32626C14.637 6.03026 14.853 5.80626 15.117 5.65426C15.381 5.50226 15.669 5.42626 15.981 5.42626C16.293 5.42626 16.585 5.50626 16.857 5.66626C17.129 5.81826 17.345 6.04226 17.505 6.33826ZM11.1172 4.26626C10.8212 4.26626 10.5732 4.17426 10.3732 3.99026C10.1812 3.79826 10.0852 3.56226 10.0852 3.28226C10.0852 3.00226 10.1812 2.77026 10.3732 2.58626C10.5732 2.39426 10.8212 2.29826 11.1172 2.29826C11.4132 2.29826 11.6572 2.39426 11.8492 2.58626C12.0492 2.77026 12.1492 3.00226 12.1492 3.28226C12.1492 3.56226 12.0492 3.79826 11.8492 3.99026C11.6572 4.17426 11.4132 4.26626 11.1172 4.26626ZM11.9452 5.05826V10.7063H10.2652V5.05826H11.9452ZM7.47131 9.11026H4.13531L3.58331 10.7063H1.81931L4.83131 2.31826H6.78731L9.79931 10.7063H8.02331L7.47131 9.11026ZM7.01531 7.76626L5.80331 4.26226L4.59131 7.76626H7.01531ZM26.5978 7.23826C26.5978 7.47826 26.5818 7.69426 26.5498 7.88626H21.6898C21.7298 8.36626 21.8978 8.74226 22.1938 9.01426C22.4898 9.28626 22.8538 9.42226 23.2858 9.42226C23.9098 9.42226 24.3538 9.15426 24.6178 8.61826H26.4298C26.2378 9.25826 25.8698 9.78626 25.3258 10.2023C24.7818 10.6103 24.1138 10.8143 23.3218 10.8143C22.6818 10.8143 22.1058 10.6743 21.5938 10.3943C21.0898 10.1063 20.6938 9.70226 20.4058 9.18226C20.1258 8.66226 19.9858 8.06226 19.9858 7.38226C19.9858 6.69426 20.1258 6.09026 20.4058 5.57026C20.6858 5.05026 21.0778 4.65026 21.5818 4.37026C22.0858 4.09026 22.6658 3.95026 23.3218 3.95026C23.9538 3.95026 24.5178 4.08626 25.0138 4.35826C25.5178 4.63026 25.9058 5.01826 26.1778 5.52226C26.4578 6.01826 26.5978 6.59026 26.5978 7.23826ZM24.8578 6.75826C24.8498 6.32626 24.6938 5.98226 24.3898 5.72626C24.0858 5.46226 23.7138 5.33026 23.2738 5.33026C22.8578 5.33026 22.5058 5.45826 22.2178 5.71426C21.9378 5.96226 21.7658 6.31026 21.7018 6.75826H24.8578ZM32.7681 4.71826C32.2801 4.21426 31.6401 3.96226 30.8481 3.96226C30.4321 3.96226 30.0481 4.04626 29.6961 4.21426C29.3521 4.37426 29.0681 4.59826 28.8441 4.88626V4.05826H27.1641V10.7063H28.8441V7.03426C28.8441 6.50626 28.9761 6.10226 29.2401 5.82226C29.5121 5.53426 29.8801 5.39026 30.3441 5.39026C30.8001 5.39026 31.1601 5.53426 31.4241 5.82226C31.6881 6.10226 31.8201 6.50626 31.8201 7.03426V10.7063H33.5001V6.80626C33.5001 5.91026 33.2561 5.21426 32.7681 4.71826ZM10.9595 11.6238V19.9998H9.27952V14.5518L7.03552 19.9998H5.76352L3.50752 14.5518V19.9998H1.82752V11.6238H3.73552L6.39952 17.8518L9.06352 11.6238H10.9595ZM18.0925 17.1798C18.1245 16.9878 18.1405 16.7718 18.1405 16.5318C18.1405 15.8838 18.0005 15.3118 17.7205 14.8158C17.4485 14.3118 17.0605 13.9238 16.5565 13.6518C16.0605 13.3798 15.4965 13.2438 14.8645 13.2438C14.2085 13.2438 13.6285 13.3838 13.1245 13.6638C12.6205 13.9438 12.2285 14.3438 11.9485 14.8638C11.6685 15.3838 11.5285 15.9878 11.5285 16.6758C11.5285 17.3558 11.6685 17.9558 11.9485 18.4758C12.2365 18.9958 12.6325 19.3998 13.1365 19.6878C13.6485 19.9678 14.2245 20.1078 14.8645 20.1078C15.6565 20.1078 16.3245 19.9038 16.8685 19.4958C17.4125 19.0798 17.7805 18.5518 17.9725 17.9118H16.1605C15.8965 18.4478 15.4525 18.7158 14.8285 18.7158C14.3965 18.7158 14.0325 18.5798 13.7365 18.3078C13.4405 18.0358 13.2725 17.6598 13.2325 17.1798H18.0925ZM15.9325 15.0198C16.2365 15.2758 16.3925 15.6198 16.4005 16.0518H13.2445C13.3085 15.6038 13.4805 15.2558 13.7605 15.0078C14.0485 14.7518 14.4005 14.6238 14.8165 14.6238C15.2565 14.6238 15.6285 14.7558 15.9325 15.0198ZM20.3867 11.1198V19.9998H18.7067V11.1198H20.3867ZM23.3426 17.9478V14.7318H24.8306V13.3518H23.3426V11.7078H21.6506V13.3518H20.8586V14.7318H21.6506V17.9358C21.6506 19.3118 22.3586 19.9998 23.7746 19.9998H24.8306V18.5838H24.0506C23.7946 18.5838 23.6106 18.5358 23.4986 18.4398C23.3946 18.3358 23.3426 18.1718 23.3426 17.9478ZM28.3309 20.1078C27.6909 20.1078 27.1149 19.9678 26.6029 19.6878C26.0909 19.3998 25.6869 18.9958 25.3909 18.4758C25.1029 17.9558 24.9589 17.3558 24.9589 16.6758C24.9589 15.9958 25.1069 15.3958 25.4029 14.8758C25.7069 14.3558 26.1189 13.9558 26.6389 13.6758C27.1589 13.3878 27.7389 13.2438 28.3789 13.2438C29.0189 13.2438 29.5989 13.3878 30.1189 13.6758C30.6389 13.9558 31.0469 14.3558 31.3429 14.8758C31.6469 15.3958 31.7989 15.9958 31.7989 16.6758C31.7989 17.3558 31.6429 17.9558 31.3309 18.4758C31.0269 18.9958 30.6109 19.3998 30.0829 19.6878C29.5629 19.9678 28.9789 20.1078 28.3309 20.1078ZM28.3309 18.6438C28.6349 18.6438 28.9189 18.5718 29.1829 18.4278C29.4549 18.2758 29.6709 18.0518 29.8309 17.7558C29.9909 17.4598 30.0709 17.0998 30.0709 16.6758C30.0709 16.0438 29.9029 15.5598 29.5669 15.2238C29.2389 14.8798 28.8349 14.7078 28.3549 14.7078C27.8749 14.7078 27.4709 14.8798 27.1429 15.2238C26.8229 15.5598 26.6629 16.0438 26.6629 16.6758C26.6629 17.3078 26.8189 17.7958 27.1309 18.1398C27.4509 18.4758 27.8509 18.6438 28.3309 18.6438ZM37.9753 14.0118C37.4873 13.5078 36.8473 13.2558 36.0553 13.2558C35.6393 13.2558 35.2553 13.3398 34.9033 13.5078C34.5593 13.6678 34.2753 13.8918 34.0513 14.1798V13.3518H32.3713V19.9998H34.0513V16.3278C34.0513 15.7998 34.1833 15.3958 34.4473 15.1158C34.7192 14.8278 35.0873 14.6838 35.5513 14.6838C36.0073 14.6838 36.3673 14.8278 36.6313 15.1158C36.8953 15.3958 37.0273 15.7998 37.0273 16.3278V19.9998H38.7073V16.0998C38.7073 15.2038 38.4632 14.5078 37.9753 14.0118Z" fill="white"/>
</svg>
