<svg width="40" height="22" viewBox="0 0 40 22" fill="none" xmlns="http://www.w3.org/2000/svg">
<path fill-rule="evenodd" clip-rule="evenodd" d="M40 0H0V22H40V0ZM10.1729 3.47998C10.0596 3.43408 9.95703 3.36865 9.86523 3.28369C9.67383 3.0918 9.57715 2.85596 9.57715 2.57568C9.57715 2.2959 9.67383 2.06396 9.86523 1.87988C10.0654 1.68799 10.3135 1.5918 10.6094 1.5918C10.9053 1.5918 11.1494 1.68799 11.3418 1.87988C11.4121 1.94482 11.4697 2.01611 11.5156 2.09326C11.5996 2.23389 11.6416 2.39502 11.6416 2.57568C11.6416 2.85596 11.541 3.0918 11.3418 3.28369C11.1494 3.46777 10.9053 3.55957 10.6094 3.55957C10.4502 3.55957 10.3047 3.5332 10.1729 3.47998ZM11.4375 4.35156V11H9.75781V4.35156H11.4375ZM6.96387 9.40381H3.62793L3.0752 11H1.31152L4.32324 2.61182H6.2793L9.29199 11H7.51562L6.96387 9.40381ZM6.50781 8.05957L5.2959 4.55566L4.08398 8.05957H6.50781ZM12.4014 5.86377C12.2695 6.12451 12.1699 6.40479 12.1035 6.7041C12.083 6.7959 12.0664 6.88916 12.0527 6.98486C12.0439 7.04395 12.0361 7.10352 12.0293 7.16406C12.0127 7.32178 12.0049 7.48438 12.0049 7.65186C12.0049 7.99512 12.0391 8.31885 12.1064 8.62305C12.1719 8.92188 12.2705 9.20215 12.4014 9.46387C12.6729 9.98389 13.041 10.3877 13.5049 10.6758C13.9688 10.9639 14.4814 11.1079 15.041 11.1079C15.1387 11.1079 15.2334 11.104 15.3262 11.0962L15.4209 11.0869L15.4863 11.0791C15.8027 11.0361 16.0908 10.9458 16.3496 10.8076C16.5859 10.6821 16.7891 10.5312 16.959 10.3545C17.0166 10.2949 17.0703 10.2324 17.1201 10.167C17.1572 10.1182 17.1924 10.0679 17.2256 10.0156V11H18.9297V2.11963H17.2256V5.27588C17.1445 5.16699 17.0537 5.06543 16.9531 4.97168C16.8486 4.87598 16.7354 4.78809 16.6113 4.70898C16.5107 4.64453 16.4033 4.58545 16.2891 4.53174C15.8975 4.33984 15.4854 4.24365 15.0527 4.24365C14.4854 4.24365 13.9688 4.38379 13.5049 4.66357C13.041 4.94385 12.6729 5.34375 12.4014 5.86377ZM16.9971 6.63184C17.1572 6.91992 17.2373 7.26758 17.2373 7.67578C17.2373 8.08398 17.1572 8.43604 16.9971 8.73193C16.8369 9.02002 16.6211 9.24365 16.3496 9.40381C16.0771 9.55566 15.7852 9.63184 15.4736 9.63184C15.3389 9.63184 15.208 9.61621 15.0801 9.58496C14.9844 9.56152 14.8906 9.52979 14.7988 9.48926C14.7354 9.46094 14.6719 9.42822 14.6094 9.3916C14.4824 9.31494 14.3672 9.22266 14.2627 9.11475C14.2139 9.06445 14.168 9.01074 14.124 8.95361C14.0654 8.87793 14.0107 8.7959 13.9609 8.70801C13.8008 8.40381 13.7217 8.05176 13.7217 7.65186C13.7217 7.43359 13.7451 7.23242 13.793 7.04736C13.832 6.89307 13.8877 6.75049 13.9609 6.61963C14.1289 6.32373 14.3447 6.09961 14.6094 5.94775C14.873 5.7959 15.1611 5.71973 15.4736 5.71973C15.7852 5.71973 16.0771 5.7998 16.3496 5.95996C16.4971 6.04248 16.6279 6.14648 16.7422 6.27148C16.8389 6.37646 16.9238 6.49658 16.9971 6.63184ZM26.0898 7.53174C26.0898 7.77197 26.0742 7.98779 26.042 8.17969H21.1816C21.2217 8.65967 21.3896 9.03564 21.6855 9.30762C21.9824 9.57959 22.3457 9.71582 22.7783 9.71582C23.4023 9.71582 23.8457 9.44775 24.1104 8.91162H25.9219C25.7305 9.55176 25.3623 10.0796 24.8184 10.4956C24.2744 10.9038 23.6064 11.1079 22.8145 11.1079C22.1738 11.1079 21.5977 10.9678 21.0859 10.688C20.582 10.3999 20.1855 9.99561 19.8984 9.47559C19.6182 8.95557 19.4775 8.35596 19.4775 7.67578C19.4775 6.98779 19.6182 6.38379 19.8984 5.86377C20.1777 5.34375 20.5703 4.94385 21.0742 4.66357C21.5781 4.38379 22.1582 4.24365 22.8145 4.24365C23.4463 4.24365 24.0098 4.37988 24.5059 4.65186C25.0098 4.92383 25.3984 5.31201 25.6699 5.81592C25.9502 6.31201 26.0898 6.88379 26.0898 7.53174ZM24.3496 7.05176C24.3418 6.61963 24.1855 6.27588 23.8818 6.02002C23.5781 5.75586 23.2061 5.62402 22.7656 5.62402C22.5723 5.62402 22.3926 5.65186 22.2266 5.70752C22.0361 5.771 21.8643 5.87109 21.71 6.00781C21.4297 6.25586 21.2578 6.604 21.1943 7.05176H24.3496ZM32.2607 5.01172C31.7725 4.50781 31.1318 4.25586 30.3398 4.25586C29.9238 4.25586 29.54 4.33984 29.1885 4.50781C28.9746 4.60742 28.7832 4.73193 28.6152 4.88135L28.5322 4.95898L28.4629 5.03076C28.418 5.07861 28.376 5.12793 28.3359 5.17969V4.35156H26.6562V11H28.3359V7.32764C28.3359 6.7998 28.4688 6.396 28.7324 6.11572C28.8242 6.01904 28.9268 5.93848 29.04 5.87402L29.1084 5.8374C29.1465 5.81836 29.1865 5.80078 29.2275 5.78516C29.4082 5.71729 29.6104 5.68359 29.8359 5.68359C30.292 5.68359 30.6523 5.82764 30.916 6.11572C31.1807 6.396 31.3125 6.7998 31.3125 7.32764V11H32.9922V7.09961C32.9922 6.20361 32.748 5.50781 32.2607 5.01172ZM10.96 11.624V20H9.2793V14.5518L7.03516 20H5.76367L3.50781 14.5518V20H1.82715V11.624H3.73535L6.39941 17.8516L9.06348 11.624H10.96ZM18.0928 17.1797C18.124 16.9878 18.1406 16.772 18.1406 16.5317C18.1406 15.8838 18.001 15.312 17.7207 14.8159C17.5967 14.5859 17.4482 14.3799 17.2754 14.1982C17.1602 14.0771 17.0342 13.9668 16.8984 13.8672C16.791 13.7886 16.6768 13.7168 16.5566 13.6519C16.2969 13.5098 16.0186 13.4043 15.7217 13.3364C15.4512 13.2744 15.165 13.2437 14.8643 13.2437C14.4688 13.2437 14.1016 13.2944 13.7627 13.396C13.5381 13.4629 13.3252 13.5522 13.124 13.6636C12.6201 13.9438 12.2285 14.3438 11.9482 14.8638C11.6689 15.3838 11.5283 15.9878 11.5283 16.6758C11.5283 17.356 11.6689 17.9556 11.9482 18.4756C12.1816 18.8965 12.4863 19.2417 12.8613 19.5107L12.9502 19.5723C13.0107 19.6128 13.0732 19.6514 13.1367 19.688C13.3525 19.8062 13.5801 19.8994 13.8193 19.9678C14.1465 20.061 14.4951 20.1079 14.8643 20.1079C15.6562 20.1079 16.3242 19.9038 16.8682 19.4956C17.4121 19.0796 17.7803 18.5518 17.9727 17.9116H16.1602C15.8965 18.4478 15.4521 18.7158 14.8281 18.7158C14.3965 18.7158 14.0322 18.5796 13.7363 18.3076C13.4404 18.0356 13.2725 17.6597 13.2324 17.1797H18.0928ZM15.9326 15.02C16.2363 15.2759 16.3926 15.6196 16.4004 16.0518H13.2441C13.2734 15.8496 13.3242 15.6675 13.3975 15.5059C13.4863 15.3101 13.6074 15.144 13.7607 15.0078C13.8008 14.9722 13.8418 14.939 13.8848 14.9082C13.9746 14.8433 14.0703 14.7896 14.1719 14.7466L14.2393 14.7202L14.3008 14.6997C14.3311 14.6899 14.3623 14.6812 14.3945 14.6733C14.4307 14.6646 14.4668 14.6572 14.5039 14.6509C14.541 14.644 14.5791 14.6387 14.6172 14.6343C14.6816 14.6274 14.748 14.624 14.8164 14.624C15.2568 14.624 15.6289 14.7559 15.9326 15.02ZM20.3867 11.1196V20H18.707V11.1196H20.3867ZM23.3428 17.9478V14.7319H24.8311V13.3516H23.3428V11.708H21.6504V13.3516H20.8584V14.7319H21.6504V17.936C21.6504 19.312 22.3584 20 23.7744 20H24.8311V18.584H24.0508C23.7949 18.584 23.6104 18.5356 23.499 18.4399C23.3945 18.3359 23.3428 18.1719 23.3428 17.9478ZM28.3311 20.1079C27.6914 20.1079 27.1152 19.9678 26.6025 19.688C26.3496 19.5454 26.123 19.3745 25.9229 19.1753C25.7178 18.9717 25.54 18.7383 25.3906 18.4756C25.1025 17.9556 24.959 17.356 24.959 16.6758C24.959 15.9956 25.1064 15.396 25.4033 14.876C25.707 14.356 26.1191 13.9556 26.6387 13.6758C27.1592 13.3877 27.7393 13.2437 28.3789 13.2437C29.0186 13.2437 29.5986 13.3877 30.1191 13.6758C30.2695 13.7568 30.4111 13.8481 30.543 13.9497C30.8662 14.1978 31.1328 14.5068 31.3428 14.876C31.6465 15.396 31.7988 15.9956 31.7988 16.6758C31.7988 17.356 31.6426 17.9556 31.3311 18.4756C31.0273 18.9956 30.6113 19.3999 30.083 19.688C29.5625 19.9678 28.9785 20.1079 28.3311 20.1079ZM28.3311 18.6436C28.6348 18.6436 28.9189 18.5718 29.1826 18.4277C29.4551 18.2759 29.6709 18.0518 29.8311 17.7559C29.9912 17.46 30.0713 17.0996 30.0713 16.6758C30.0713 16.0439 29.9033 15.5596 29.5674 15.2236C29.3682 15.0146 29.1406 14.8691 28.8848 14.7871C28.8047 14.7617 28.7227 14.7422 28.6377 14.729C28.5469 14.7148 28.4521 14.708 28.3545 14.708C27.875 14.708 27.4707 14.8799 27.1426 15.2236C26.8232 15.5596 26.6631 16.0439 26.6631 16.6758C26.6631 17.3076 26.8193 17.7959 27.1309 18.1396C27.2832 18.2998 27.4541 18.4219 27.6436 18.5059C27.8506 18.5977 28.0801 18.6436 28.3311 18.6436ZM37.9756 14.0117C37.4873 13.5078 36.8477 13.2559 36.0557 13.2559C35.8535 13.2559 35.6592 13.2754 35.4727 13.3149C35.2744 13.3569 35.084 13.4214 34.9033 13.5078C34.5596 13.668 34.2754 13.8916 34.0518 14.1797V13.3516H32.3711V20H34.0518V16.3276C34.0518 16.0576 34.0859 15.8198 34.1553 15.6147C34.2207 15.4189 34.3184 15.2524 34.4473 15.1157C34.7197 14.8276 35.0869 14.6836 35.5518 14.6836C36.0068 14.6836 36.3672 14.8276 36.6309 15.1157C36.8955 15.396 37.0273 15.7998 37.0273 16.3276V20H38.707V16.0996C38.707 15.2036 38.4629 14.5078 37.9756 14.0117Z" fill="white"/>
</svg>
