<svg width="325" height="168" viewBox="0 0 325 168" fill="none" xmlns="http://www.w3.org/2000/svg">
<path d="M12.6958 129.416C17.5218 135.689 23.8978 147.776 35.1157 147.4C47.6267 146.979 46.746 143.212 56.3432 123.381C65.9404 103.551 100.584 36.4406 108.489 19.5858C116.394 2.7309 116.937 3.36321 117.442 4.50192C117.947 5.64064 118.399 7.26659 119.49 16.5501C120.581 25.8336 120.473 76.5038 122.667 89.2253C124.862 101.947 127.482 109.986 129.465 115.392C131.447 120.799 137.758 132.178 145.713 140.914C191.489 184.086 276.374 160.517 312.989 118.586" stroke="white" stroke-width="8" stroke-linecap="round"/>
<path d="M146.989 123.261C157.989 115.416 160.735 92.4366 162.357 85.4987C163.98 78.5609 163.588 78.6916 163.385 78.9224C163.183 79.1531 163.183 79.4799 162.726 83.3736C162.268 87.2674 161.353 94.7182 160.947 100.321C160.541 105.924 160.671 109.453 160.902 112.089C161.278 116.377 160.912 119.759 164.259 122.28C169.417 126.164 175.362 112.766 178.989 108.086M178.989 108.086C180.248 98.0857 186.2 89.1152 196.678 83.8688C201.989 81.2093 205.699 81.4525 204.815 83.9133M178.989 108.086C178.671 110.345 178.489 117.086 183.989 121.086C189.732 125.262 201.513 128.009 206.989 111.508M204.815 83.9133C204.067 71.7954 204.328 57.0898 204.493 49.9728C204.657 42.8557 204.742 43.3128 204.755 44.35M204.815 83.9133C205.562 96.0313 205.851 106.305 206.989 111.508M206.989 111.508C208.367 117.808 214.635 124.445 221.978 123.261C225.9 122.628 226.826 120.76 230.58 117.833C232.597 116.26 242.916 105.943 241.703 93.4595C240.489 80.9762 234.489 80.5857 229.489 82.0857C224.489 83.5857 223.186 93.1065 223.587 100.735C224.358 115.411 237.396 130.929 250.443 127.095C263.489 123.261 260.475 105.455 259.933 90.8234C259.79 86.9556 260.135 93.8667 258.812 80.9762C257.489 68.0857 265.167 97.7075 266.505 108.963C267.318 115.8 267.627 122.471 267.989 123.261" stroke="white" stroke-width="8" stroke-linecap="round"/>
<path d="M265.673 90.5607C269.105 89.2119 283.489 80.5856 287.489 86.0856C292.489 94.0856 286.552 104.751 290.989 114.086C301.47 136.134 345.989 54.0856 298.989 58.0855C197.489 62.5858 143.804 64.1068 132.69 65.8397C115.815 66.9043 91.3447 69.4521 77.1014 72.0158C29.489 80.5857 -14.5114 87.5857 11.9888 128.086" stroke="white" stroke-width="8" stroke-linecap="round"/>
</svg>
